<?xml version="1.0"?>
<svg xmlns="http://www.w3.org/2000/svg" height="512px" viewBox="-24 -19 629 629.33331" width="512px" class=""><g><path d="m-.167969 590h580c-26.371093-9.09375-53.078125-16.765625-80-23.3125v-57.375c39.960938-5.074219 69.933594-39.035156 70-79.3125v-310h-20v84.140625l-50 50v41.71875l50-50v28.28125l-50 50v41.71875l50-50v28.28125l-50 50v41.71875l50-50v28.28125l-50 50v25c-3.304687.566406-6.648437.855469-10 .859375-3.359375.1875-6.726562-.121094-10-.898438v-25l-50-50v-28.242187l50 50v-41.71875l-50-50v-28.28125l50 50v-41.71875l-50-50v-28.28125l50 50v-41.71875l-50-50v-84.140625h-20v310c.070313 40.277344 30.039063 74.238281 70 79.3125v52.75c-59.144531-12.925781-119.457031-19.777344-180-20.453125v-112.296875c39.960938-5.074219 69.933594-39.035156 70-79.3125v-310h-20v84.140625l-50 50v41.71875l50-50v28.28125l-50 50v41.71875l50-50v28.28125l-50 50v41.71875l50-50v28.28125l-50 50v25c-3.304687.566406-6.648437.855469-10 .859375-3.359375.1875-6.726562-.121094-10-.898438v-25l-50-50v-28.242187l50 50v-41.71875l-50-50v-28.28125l50 50v-41.71875l-50-50v-28.28125l50 50v-41.71875l-50-50v-84.140625h-20v310c.070313 40.277344 30.039063 74.238281 70 79.3125v112.296875c-60.539062.675781-120.851562 7.527344-180 20.453125v-52.75c39.960938-5.074219 69.933594-39.035156 70-79.3125v-310h-20v84.140625l-50 50v41.71875l50-50v28.28125l-50 50v41.71875l50-50v28.28125l-50 50v41.71875l50-50v28.28125l-50 50v25c-3.304687.566406-6.648437.855469-10 .859375-3.359375.1875-6.726562-.121094-10-.898438v-25l-50-50v-28.242187l50 50v-41.71875l-50-50v-28.28125l50 50v-41.71875l-50-50v-28.28125l50 50v-41.71875l-50-50v-84.140625h-20v310c.070313 40.277344 30.039063 74.238281 70 79.3125v57.375c-26.917969 6.546875-53.625 14.21875-80 23.3125zm0 0" data-original="#000000" class="active-path" data-old_color="#000000" fill="#46866C"/><path d="m289.832031 155.859375 8.101563-8.101563c15.308594-15.339843 15.308594-40.175781 0-55.515624l-8.101563-8.101563-8.097656 8.101563c-15.300781 15.339843-15.300781 40.175781 0 55.515624zm0 0" data-original="#000000" class="active-path" data-old_color="#000000" fill="#46866C"/><path d="m489.832031 235.859375 8.101563-8.101563c15.308594-15.339843 15.308594-40.175781 0-55.515624l-8.101563-8.101563-8.097656 8.101563c-15.300781 15.339843-15.300781 40.175781 0 55.515624zm0 0" data-original="#000000" class="active-path" data-old_color="#000000" fill="#46866C"/><path d="m89.832031 235.859375 8.101563-8.101563c15.308594-15.339843 15.308594-40.175781 0-55.515624l-8.101563-8.101563-8.097656 8.101563c-15.300781 15.339843-15.300781 40.175781 0 55.515624zm0 0" data-original="#000000" class="active-path" data-old_color="#000000" fill="#46866C"/><path d="m279.832031 0h20v70h-20zm0 0" data-original="#000000" class="active-path" data-old_color="#000000" fill="#46866C"/><path d="m479.832031 80h20v70h-20zm0 0" data-original="#000000" class="active-path" data-old_color="#000000" fill="#46866C"/><path d="m79.832031 80h20v70h-20zm0 0" data-original="#000000" class="active-path" data-old_color="#000000" fill="#46866C"/></g> </svg>
